<?xml version="1.0" encoding="UTF-8"?>
<svg version="1.1" xmlns="http://www.w3.org/2000/svg" viewBox="50 60 100 80">
<path d="M0 0 C1.11181641 0.00322266 2.22363281 0.00644531 3.36914062 0.00976562 C4.51962891 0.01814453 5.67011719 0.02652344 6.85546875 0.03515625 C8.02529297 0.03966797 9.19511719 0.04417969 10.40039062 0.04882812 C13.28130233 0.06058695 16.16210919 0.07702199 19.04296875 0.09765625 C20.11025995 3.35570307 20.17593936 3.83171504 18.54296875 7.09765625 C14.49097635 11.96004713 11.58959614 13.82489976 5.359375 14.4921875 C2.69262823 14.6686373 0.0451229 14.75497098 -2.62890625 14.82421875 C-6.09285551 14.83814026 -6.09285551 14.83814026 -8.95703125 17.09765625 C-9.37369792 19.59765625 -9.37369792 19.59765625 -8.95703125 22.09765625 C-5.62127236 25.43341514 -1.07920565 24.50639305 3.46484375 24.65625 C9.99840163 25.46224568 13.80651406 28.28414103 17.78125 33.28125 C21.08946621 38.04385228 21.39865947 42.28503153 20.57421875 47.859375 C19.09980357 54.07143306 15.94896101 57.63972827 10.7265625 61.15234375 C6.25669538 63.66210673 1.76515663 63.35356838 -3.20703125 63.41015625 C-4.04105469 63.43916016 -4.87507813 63.46816406 -5.734375 63.49804688 C-11.67245123 63.55863949 -15.14615803 62.64868591 -19.95703125 59.09765625 C-21.515625 56.95703125 -21.515625 56.95703125 -22.39453125 54.84765625 C-22.85666016 53.78804687 -22.85666016 53.78804687 -23.328125 52.70703125 C-23.53566406 52.1759375 -23.74320312 51.64484375 -23.95703125 51.09765625 C-23.29703125 50.10765625 -22.63703125 49.11765625 -21.95703125 48.09765625 C-19.26733398 47.77294922 -19.26733398 47.77294922 -15.890625 47.83984375 C-14.68341797 47.85402344 -13.47621094 47.86820313 -12.23242188 47.8828125 C-10.33266602 47.92728516 -10.33266602 47.92728516 -8.39453125 47.97265625 C-5.89329628 48.01580287 -3.39199058 48.05508399 -0.890625 48.08984375 C0.22256104 48.1141748 1.33574707 48.13850586 2.48266602 48.16357422 C4.97675837 48.39342439 4.97675837 48.39342439 6.04296875 47.09765625 C6.20963542 44.09765625 6.20963542 44.09765625 6.04296875 41.09765625 C3.86494844 38.91963594 -1.18070738 39.27386265 -4.234375 38.93554688 C-11.33642314 38.07744086 -15.22441138 36.56030608 -19.66015625 31.015625 C-23.04173895 26.01454937 -23.35168912 21.01922604 -22.48828125 15.23046875 C-20.98577973 9.19836707 -16.09888879 4.37946553 -10.95703125 1.09765625 C-7.25812418 0.16046035 -3.80671139 -0.0195216 0 0 Z " fill="#2C7191" transform="translate(123.95703125,67.90234375)" stroke="#2C7191" stroke-width="2"/>
<path d="M0 0 C0.66 0.66 1.32 1.32 2 2 C1.91071355 6.01789004 1.27488883 7.68170767 -1.375 10.75 C-5.22079039 14.04639176 -7.31881539 15.20957249 -12.3125 15.4375 C-16.87915357 15.76368954 -20.00774252 16.64559174 -24 19 C-24.66 19 -25.32 19 -26 19 C-29.36480492 26.87022167 -29.76341145 33.38154145 -26.6875 41.4375 C-24.89535491 44.1589055 -23.78613778 45.34486865 -21 47 C-18.43799776 47.474237 -16.01852978 47.82605079 -13.4375 48.0625 C-6.38130959 48.74579361 -6.38130959 48.74579361 -3 51 C-3 51.66 -3 52.32 -3 53 C-2.34 53 -1.68 53 -1 53 C2.10096154 58.45769231 2.10096154 58.45769231 1.58984375 61.203125 C1.39519531 61.79609375 1.20054688 62.3890625 1 63 C-26.28585988 63.93877512 -26.28585988 63.93877512 -36.875 55.3125 C-42.549226 49.87215786 -46.65095019 43.3737436 -47.16796875 35.4140625 C-47.24017294 25.10330379 -44.32158009 16.98359484 -37.3671875 9.1640625 C-26.95825804 -0.3734217 -13.45707257 -0.97062015 0 0 Z " fill="#203175" transform="translate(101,68)" stroke="#203175" stroke-width="2"/>
<path d="M0 0 C0.66 0 1.32 0 2 0 C1.89300781 0.90621094 1.78601563 1.81242187 1.67578125 2.74609375 C0.52368426 13.26931633 0.52368426 13.26931633 4 23 C7.93780248 26.99528864 11.12273176 27.6149278 16.625 28.125 C23.71067738 28.80711825 23.71067738 28.80711825 27 31 C27 31.66 27 32.32 27 33 C27.66 33 28.32 33 29 33 C32.10096154 38.45769231 32.10096154 38.45769231 31.58984375 41.203125 C31.39519531 41.79609375 31.20054688 42.3890625 31 43 C7.00483611 43.82555811 7.00483611 43.82555811 -2 39 C-1.67 38.01 -1.34 37.02 -1 36 C-1.9479589 33.97481509 -2.95191959 31.97522846 -4 30 C-6.89077954 21.32766137 -5.71759393 10.89197822 -1.97265625 2.7578125 C-1 1 -1 1 0 0 Z " fill="#1E276F" transform="translate(71,88)" stroke="#1E276F" stroke-width="2"/>
<path d="M0 0 C1.11181641 0.00322266 2.22363281 0.00644531 3.36914062 0.00976562 C4.51962891 0.01814453 5.67011719 0.02652344 6.85546875 0.03515625 C8.02529297 0.03966797 9.19511719 0.04417969 10.40039062 0.04882812 C13.28130233 0.06058695 16.16210919 0.07702199 19.04296875 0.09765625 C20.11025995 3.35570307 20.17593936 3.83171504 18.54296875 7.09765625 C14.50551677 11.94259862 11.60246801 13.82087956 5.39453125 14.4921875 C2.74862866 14.66845211 0.121946 14.75488901 -2.53125 14.82421875 C-5.71610418 15.07842604 -7.270487 15.52639757 -9.95703125 17.09765625 C-10.80265625 17.20078125 -11.64828125 17.30390625 -12.51953125 17.41015625 C-15.13027746 17.89637221 -15.13027746 17.89637221 -16.70703125 20.22265625 C-18.14382836 23.52728961 -18.6066572 26.52384098 -18.95703125 30.09765625 C-20.95703125 29.09765625 -20.95703125 29.09765625 -22.14453125 26.09765625 C-23.61904154 20.35296415 -23.01473128 15.17237554 -20.33203125 9.91015625 C-14.12127227 2.55531009 -9.75478528 -0.05002454 0 0 Z " fill="#2F9CA2" transform="translate(123.95703125,67.90234375)" stroke="#2F9CA2" stroke-width="2"/>
</svg>
